# xmcd CD database file
#
# Track frame offsets:
#	150
#	16122
#	27212
#	39800
#	52482
#	63332
#	73380
#	89200
#	103772
#	114240
#	126617
#	138552
#	150940
#	163237
#	178835
#	190982
#
# Disc length: 2730 seconds
#
# Revision: 2
# Processed by: cddbd v1.5.2PL0 Copyright (c) Steve Scherf et al.
# Submitted via: CDex 1.70beta2
#
DISCID=eb0aa810
DTITLE=Gary Buck - Western Swing and Country
DYEAR=1998
DGENRE=Country
TTITLE0=We're Going Out Dancing
TTITLE1=I Always Leave My Heart With You In Texas
TTITLE2=Deep Water
TTITLE3=Time Changes Everything
TTITLE4=When Two World's Collide
TTITLE5=Green Light
TTITLE6=Bright Morning Light
TTITLE7=Ain't You Even Gonna Cry
TTITLE8=You Can't Change Horses
TTITLE9=All Time Great Romance
TTITLE10=I Guess I Do
TTITLE11=Detour
TTITLE12=Funny How Time Slips Away
TTITLE13=A Little Rain
TTITLE14=Dreams Come True
TTITLE15=When In Texas
EXTD=YEAR: 1998
EXTT0=
EXTT1=
EXTT2=
EXTT3=
EXTT4=
EXTT5=
EXTT6=
EXTT7=
EXTT8=
EXTT9=
EXTT10=
EXTT11=
EXTT12=
EXTT13=
EXTT14=
EXTT15=
PLAYORDER=
